# xmcd
#
# Track frame offsets: 
#        150
#        14550
#        29930
#        42147
#        57402
#        71322
#        82970
#        96267
#        110820
#        125682
#        139487
#        154527
#        167597
#        181087
#        195127
#        207342
#        223037
#        239315
#
# Disc length: 3376 seconds
#
# Revision: 1
# Processed by: cddbd v1.5.2PL0 Copyright (c) Steve Scherf et al.
# Submitted via: ExactAudioCopy v1.0b1
#
DISCID=010d2e12
DTITLE=Louis Amstrong - Masters Of Jazz
DYEAR=2001
DGENRE=Jazz
TTITLE0=Memories Of You
TTITLE1=La Vie En Rose (Live)
TTITLE2=When The Saints Go Marching In...
TTITLE3=Just A Gigolo
TTITLE4=I Got Rhythm
TTITLE5=Muskrat Ramble
TTITLE6=On The Sunny Side Of The Street
TTITLE7=Some Day You' ll Be Sorry
TTITLE8=Body And Soul
TTITLE9=C'est Si Bon (It's So Good)
TTITLE10=St. James Infirmery
TTITLE11=You Won't Be Satisfied (Untill You Break My Heart)
TTITLE12=Do You Know What It Means To Miss New Orleans
TTITLE13=Tiger Rag
TTITLE14=Dipper Mouth Blues
TTITLE15=C. Jam Blues
TTITLE16=If I Could Be With You
TTITLE17=That Lucky Old Sun
EXTD=YEAR: 2001
EXTT0=
EXTT1=
EXTT2=
EXTT3=
EXTT4=
EXTT5=
EXTT6=
EXTT7=
EXTT8=
EXTT9=
EXTT10=
EXTT11=
EXTT12=
EXTT13=
EXTT14=
EXTT15=
EXTT16=
EXTT17=
PLAYORDER=
